<svg xmlns="http://www.w3.org/2000/svg" viewBox="0 0 100 100">
  <rect width="100" height="100" rx="20" fill="#212121"/>
  <path d="M50 20C35 20 25 30 25 45C25 55 30 60 35 65C30 70 25 75 25 85C25 88 27 90 30 90C40 90 45 80 50 75C55 80 60 90 70 90C73 90 75 88 75 85C75 75 70 70 65 65C70 60 75 55 75 45C75 30 65 20 50 20ZM50 30C58 30 65 35 65 45C65 52 60 55 55 58C58 60 62 65 62 72C62 76 60 80 58 80C56 80 55 78 55 75C55 68 50 62 45 62C40 62 35 68 35 75C35 78 34 80 32 80C30 80 28 76 28 72C28 65 32 60 35 58C30 55 25 52 25 45C25 35 32 30 50 30Z" fill="#00E676"/>
</svg>
